<svg width="139" height="51" viewBox="0 0 139 51" fill="none" xmlns="http://www.w3.org/2000/svg">
<path d="M19.9208 13.7656H15.5657C15.4862 13.2022 15.3237 12.7017 15.0785 12.2642C14.8332 11.8201 14.5183 11.4422 14.1339 11.1307C13.7494 10.8191 13.3053 10.5805 12.8015 10.4148C12.3043 10.2491 11.7641 10.1662 11.1808 10.1662C10.1268 10.1662 9.20869 10.428 8.42649 10.9517C7.64429 11.4687 7.03776 12.2244 6.60689 13.2188C6.17602 14.2064 5.96058 15.4062 5.96058 16.8182C5.96058 18.2699 6.17602 19.4896 6.60689 20.4773C7.04439 21.465 7.65424 22.2107 8.43643 22.7145C9.21863 23.2183 10.1235 23.4702 11.1509 23.4702C11.7276 23.4702 12.2612 23.3939 12.7518 23.2415C13.2489 23.089 13.6897 22.867 14.0742 22.5753C14.4587 22.277 14.7769 21.9157 15.0288 21.4915C15.2873 21.0672 15.4663 20.5833 15.5657 20.0398L19.9208 20.0597C19.8081 20.9943 19.5264 21.8958 19.0756 22.7642C18.6315 23.6259 18.0316 24.3982 17.2759 25.081C16.5269 25.7571 15.632 26.294 14.5913 26.6918C13.5572 27.0829 12.3872 27.2784 11.0813 27.2784C9.26503 27.2784 7.64098 26.8674 6.20916 26.0455C4.78397 25.2235 3.65708 24.0336 2.82848 22.4759C2.00651 20.9181 1.59553 19.0322 1.59553 16.8182C1.59553 14.5975 2.01314 12.7083 2.84837 11.1506C3.68359 9.5928 4.81712 8.40625 6.24893 7.59091C7.68075 6.76894 9.29155 6.35795 11.0813 6.35795C12.2612 6.35795 13.355 6.52367 14.3626 6.85511C15.3768 7.18655 16.275 7.67045 17.0572 8.30682C17.8394 8.93655 18.4757 9.70881 18.9663 10.6236C19.4634 11.5384 19.7816 12.5857 19.9208 13.7656ZM27.1644 18.1705V27H22.9286V6.63636H27.0451V14.4219H27.2241C27.5688 13.5204 28.1256 12.8144 28.8945 12.304C29.6635 11.7869 30.628 11.5284 31.788 11.5284C32.8486 11.5284 33.7733 11.7604 34.5621 12.2244C35.3576 12.6818 35.9741 13.3414 36.4116 14.2031C36.8557 15.0582 37.0745 16.0824 37.0678 17.2756V27H32.832V18.0312C32.8387 17.09 32.6 16.3575 32.1161 15.8338C31.6389 15.3101 30.9693 15.0483 30.1076 15.0483C29.5309 15.0483 29.0205 15.1709 28.5763 15.4162C28.1388 15.6615 27.7942 16.0194 27.5423 16.4901C27.297 16.9541 27.171 17.5142 27.1644 18.1705ZM44.7564 27.2884C43.782 27.2884 42.9136 27.1193 42.1513 26.7812C41.389 26.4366 40.7857 25.9295 40.3416 25.2599C39.9041 24.5838 39.6854 23.742 39.6854 22.7344C39.6854 21.8859 39.8411 21.1733 40.1527 20.5966C40.4643 20.0199 40.8885 19.5559 41.4254 19.2045C41.9624 18.8532 42.5722 18.5881 43.255 18.4091C43.9444 18.2301 44.6669 18.1042 45.4226 18.0312C46.3108 17.9384 47.0268 17.8523 47.5703 17.7727C48.1139 17.6866 48.5083 17.5606 48.7536 17.3949C48.9988 17.2292 49.1214 16.9839 49.1214 16.6591V16.5994C49.1214 15.9697 48.9226 15.4825 48.5249 15.1378C48.1338 14.7931 47.5769 14.6207 46.8544 14.6207C46.0921 14.6207 45.4856 14.7898 45.0348 15.1278C44.584 15.4593 44.2857 15.8769 44.1399 16.3807L40.2223 16.0625C40.4212 15.1345 40.8123 14.3324 41.3956 13.6562C41.9789 12.9735 42.7313 12.4498 43.6527 12.0852C44.5807 11.714 45.6546 11.5284 46.8743 11.5284C47.7228 11.5284 48.5348 11.6278 49.3104 11.8267C50.0926 12.0256 50.7853 12.3338 51.3885 12.7514C51.9983 13.169 52.4789 13.706 52.8303 14.3622C53.1816 15.0118 53.3572 15.7907 53.3572 16.6989V27H49.3402V24.8821H49.2209C48.9756 25.3594 48.6475 25.7803 48.2365 26.1449C47.8255 26.5028 47.3317 26.7846 46.755 26.9901C46.1783 27.1889 45.5121 27.2884 44.7564 27.2884ZM45.9695 24.3651C46.5926 24.3651 47.1428 24.2424 47.62 23.9972C48.0973 23.7453 48.4718 23.4072 48.7436 22.983C49.0154 22.5587 49.1513 22.0781 49.1513 21.5412V19.9205C49.0187 20.0066 48.8364 20.0862 48.6044 20.1591C48.379 20.2254 48.1238 20.2884 47.8388 20.348C47.5537 20.401 47.2687 20.4508 46.9837 20.4972C46.6986 20.5369 46.4401 20.5734 46.2081 20.6065C45.7109 20.6795 45.2768 20.7955 44.9055 20.9545C44.5343 21.1136 44.246 21.3291 44.0405 21.6009C43.835 21.866 43.7322 22.1974 43.7322 22.5952C43.7322 23.1719 43.9411 23.6127 44.3587 23.9176C44.7829 24.2159 45.3198 24.3651 45.9695 24.3651ZM60.8793 6.63636V27H56.6435V6.63636H60.8793ZM68.5082 6.63636V27H64.2724V6.63636H68.5082ZM78.8615 27.2983C77.2905 27.2983 75.9382 26.9801 74.8047 26.3438C73.6778 25.7008 72.8094 24.7926 72.1996 23.6193C71.5897 22.4394 71.2848 21.044 71.2848 19.4332C71.2848 17.8622 71.5897 16.4834 72.1996 15.2969C72.8094 14.1103 73.6679 13.1856 74.7749 12.5227C75.8885 11.8598 77.1944 11.5284 78.6925 11.5284C79.7 11.5284 80.638 11.6908 81.5064 12.0156C82.3814 12.3338 83.1437 12.8144 83.7933 13.4574C84.4496 14.1004 84.96 14.9091 85.3246 15.8835C85.6892 16.8513 85.8714 17.9848 85.8714 19.2841V20.4474H72.9751V17.8224H81.8842C81.8842 17.2126 81.7517 16.6723 81.4865 16.2017C81.2214 15.7311 80.8535 15.3632 80.3828 15.098C79.9188 14.8262 79.3786 14.6903 78.7621 14.6903C78.1191 14.6903 77.549 14.8395 77.0518 15.1378C76.5613 15.4295 76.1768 15.8239 75.8984 16.321C75.62 16.8116 75.4775 17.3584 75.4709 17.9616V20.4574C75.4709 21.2131 75.6101 21.866 75.8885 22.4162C76.1735 22.9664 76.5746 23.3906 77.0916 23.6889C77.6087 23.9872 78.2218 24.1364 78.9311 24.1364C79.4018 24.1364 79.8326 24.0701 80.2237 23.9375C80.6148 23.8049 80.9496 23.6061 81.228 23.3409C81.5064 23.0758 81.7185 22.7509 81.8643 22.3665L85.782 22.625C85.5831 23.5663 85.1754 24.3883 84.5589 25.0909C83.9491 25.7869 83.1603 26.3305 82.1925 26.7216C81.2313 27.1061 80.121 27.2983 78.8615 27.2983ZM92.8714 18.1705V27H88.6357V11.7273H92.6726V14.4219H92.8516C93.1896 13.5336 93.7564 12.831 94.5518 12.3139C95.3473 11.7902 96.3118 11.5284 97.4453 11.5284C98.5059 11.5284 99.4306 11.7604 100.219 12.2244C101.008 12.6884 101.621 13.3513 102.059 14.2131C102.496 15.0682 102.715 16.089 102.715 17.2756V27H98.4794V18.0312C98.486 17.0966 98.2474 16.3674 97.7635 15.8438C97.2796 15.3134 96.6134 15.0483 95.7649 15.0483C95.1948 15.0483 94.6911 15.1709 94.2536 15.4162C93.8227 15.6615 93.4846 16.0194 93.2393 16.4901C93.0007 16.9541 92.8781 17.5142 92.8714 18.1705ZM112.934 33.0455C111.562 33.0455 110.386 32.8565 109.404 32.4787C108.43 32.1075 107.654 31.6004 107.078 30.9574C106.501 30.3144 106.127 29.5919 105.954 28.7898L109.872 28.2628C109.991 28.5677 110.18 28.8527 110.439 29.1179C110.697 29.383 111.038 29.5952 111.463 29.7543C111.894 29.92 112.417 30.0028 113.034 30.0028C113.955 30.0028 114.714 29.7775 115.311 29.3267C115.914 28.8826 116.216 28.1368 116.216 27.0895V24.2955H116.037C115.851 24.7197 115.573 25.1207 115.201 25.4986C114.83 25.8764 114.353 26.1847 113.77 26.4233C113.186 26.6619 112.49 26.7812 111.681 26.7812C110.535 26.7812 109.491 26.5161 108.549 25.9858C107.615 25.4489 106.869 24.6302 106.312 23.5298C105.762 22.4228 105.487 21.0241 105.487 19.3338C105.487 17.6037 105.769 16.1586 106.332 14.9986C106.895 13.8385 107.645 12.9702 108.579 12.3935C109.52 11.8168 110.551 11.5284 111.672 11.5284C112.527 11.5284 113.243 11.6742 113.819 11.9659C114.396 12.2509 114.86 12.6089 115.211 13.0398C115.569 13.464 115.844 13.8816 116.037 14.2926H116.196V11.7273H120.402V27.1491C120.402 28.4484 120.083 29.5355 119.447 30.4105C118.811 31.2855 117.929 31.9418 116.802 32.3793C115.682 32.8234 114.393 33.0455 112.934 33.0455ZM113.024 23.5994C113.707 23.5994 114.283 23.4304 114.754 23.0923C115.231 22.7476 115.596 22.2571 115.848 21.6207C116.106 20.9777 116.235 20.2088 116.235 19.3139C116.235 18.419 116.109 17.6435 115.858 16.9872C115.606 16.3243 115.241 15.8106 114.764 15.446C114.287 15.0814 113.707 14.8991 113.024 14.8991C112.328 14.8991 111.741 15.0881 111.264 15.4659C110.787 15.8371 110.425 16.3542 110.18 17.017C109.935 17.6799 109.812 18.4455 109.812 19.3139C109.812 20.1955 109.935 20.9579 110.18 21.6009C110.432 22.2372 110.793 22.7311 111.264 23.0824C111.741 23.4271 112.328 23.5994 113.024 23.5994ZM130.733 27.2983C129.162 27.2983 127.809 26.9801 126.676 26.3438C125.549 25.7008 124.681 24.7926 124.071 23.6193C123.461 22.4394 123.156 21.044 123.156 19.4332C123.156 17.8622 123.461 16.4834 124.071 15.2969C124.681 14.1103 125.539 13.1856 126.646 12.5227C127.76 11.8598 129.065 11.5284 130.564 11.5284C131.571 11.5284 132.509 11.6908 133.377 12.0156C134.252 12.3338 135.015 12.8144 135.664 13.4574C136.321 14.1004 136.831 14.9091 137.196 15.8835C137.56 16.8513 137.743 17.9848 137.743 19.2841V20.4474H124.846V17.8224H133.755C133.755 17.2126 133.623 16.6723 133.358 16.2017C133.092 15.7311 132.725 15.3632 132.254 15.098C131.79 14.8262 131.25 14.6903 130.633 14.6903C129.99 14.6903 129.42 14.8395 128.923 15.1378C128.432 15.4295 128.048 15.8239 127.77 16.321C127.491 16.8116 127.349 17.3584 127.342 17.9616V20.4574C127.342 21.2131 127.481 21.866 127.76 22.4162C128.045 22.9664 128.446 23.3906 128.963 23.6889C129.48 23.9872 130.093 24.1364 130.802 24.1364C131.273 24.1364 131.704 24.0701 132.095 23.9375C132.486 23.8049 132.821 23.6061 133.099 23.3409C133.377 23.0758 133.59 22.7509 133.735 22.3665L137.653 22.625C137.454 23.5663 137.047 24.3883 136.43 25.0909C135.82 25.7869 135.031 26.3305 134.064 26.7216C133.102 27.1061 131.992 27.2983 130.733 27.2983Z" fill="white"/>
<rect x="36" y="40" width="67" height="11" fill="white"/>
</svg>
